<?xml version="1.0" standalone="no"?>
<!DOCTYPE svg PUBLIC "-//W3C//DTD SVG 20010904//EN"
 "http://www.w3.org/TR/2001/REC-SVG-20010904/DTD/svg10.dtd">
<svg version="1.0" xmlns="http://www.w3.org/2000/svg"
 width="310.000000pt" height="310.000000pt" viewBox="0 0 310.000000 310.000000"
 preserveAspectRatio="xMidYMid meet">
<metadata>
Created by potrace 1.15, written by Peter Selinger 2001-2017
</metadata>
<g transform="translate(0.000000,310.000000) scale(0.100000,-0.100000)"
fill="#000000" stroke="none">
<path d="M140 2360 l0 -100 560 0 560 0 0 -335 0 -335 -425 0 -425 0 0 -100 0
-100 425 0 425 0 -2 -462 -3 -463 103 3 102 3 0 995 0 994 -660 0 -660 0 0
-100z"/>
<path d="M1640 1465 c0 -694 3 -995 11 -995 5 0 7 -5 4 -10 -10 -17 174 -13
191 4 12 12 14 89 14 470 l0 456 425 0 425 0 0 94 c0 79 -3 95 -17 100 -9 4
-200 7 -425 6 l-407 0 -3 335 -3 335 552 0 552 0 3 96 c2 53 1 98 -1 100 -2 2
-301 4 -663 4 l-658 0 0 -995z"/>
</g>
</svg>
